<svg viewBox="0 0 800 800" xmlns="http://www.w3.org/2000/svg">
<line stroke="blue" stroke-witdh="2" x1="326" x2="500" y1="154" y2="500"/>
<line stroke="brown" stroke-witdh="2" x1="326" x2="500" y1="292" y2="500"/>
<line stroke="green" stroke-witdh="2" x1="244" x2="500" y1="279" y2="500"/>
<line stroke="green" stroke-witdh="2" x1="373" x2="500" y1="141" y2="500"/>
<line stroke="orange" stroke-witdh="2" x1="365" x2="500" y1="18" y2="500"/>
<line stroke="orange" stroke-witdh="2" x1="368" x2="500" y1="312" y2="500"/>
<line stroke="blue" stroke-witdh="2" x1="242" x2="500" y1="345" y2="500"/>
<line stroke="green" stroke-witdh="2" x1="266" x2="500" y1="148" y2="500"/>
<line stroke="black" stroke-witdh="2" x1="80" x2="500" y1="333" y2="500"/>
<line stroke="green" stroke-witdh="2" x1="163" x2="500" y1="226" y2="500"/>
<line stroke="blue" stroke-witdh="2" x1="94" x2="500" y1="265" y2="500"/>
<line stroke="blue" stroke-witdh="2" x1="393" x2="500" y1="252" y2="500"/>
<line stroke="black" stroke-witdh="2" x1="39" x2="500" y1="179" y2="500"/>
<line stroke="brown" stroke-witdh="2" x1="139" x2="500" y1="226" y2="500"/>
<line stroke="blue" stroke-witdh="2" x1="302" x2="500" y1="175" y2="500"/>
<line stroke="orange" stroke-witdh="2" x1="76" x2="500" y1="164" y2="500"/>
<line stroke="brown" stroke-witdh="2" x1="375" x2="500" y1="82" y2="500"/>
<line stroke="black" stroke-witdh="2" x1="109" x2="500" y1="369" y2="500"/>
<line stroke="orange" stroke-witdh="2" x1="263" x2="500" y1="212" y2="500"/>
<line stroke="orange" stroke-witdh="2" x1="396" x2="500" y1="28" y2="500"/>
<line stroke="orange" stroke-witdh="2" x1="305" x2="500" y1="230" y2="500"/>
<line stroke="blue" stroke-witdh="2" x1="309" x2="500" y1="386" y2="500"/>
<line stroke="brown" stroke-witdh="2" x1="245" x2="500" y1="283" y2="500"/>
<line stroke="green" stroke-witdh="2" x1="258" x2="500" y1="279" y2="500"/>
<line stroke="brown" stroke-witdh="2" x1="347" x2="500" y1="260" y2="500"/>
<line stroke="green" stroke-witdh="2" x1="234" x2="500" y1="150" y2="500"/>
<line stroke="blue" stroke-witdh="2" x1="215" x2="500" y1="54" y2="500"/>
<line stroke="green" stroke-witdh="2" x1="390" x2="500" y1="42" y2="500"/>
<line stroke="black" stroke-witdh="2" x1="93" x2="500" y1="308" y2="500"/>
<line stroke="green" stroke-witdh="2" x1="275" x2="500" y1="133" y2="500"/>
<line stroke="orange" stroke-witdh="2" x1="342" x2="500" y1="22" y2="500"/>
<line stroke="orange" stroke-witdh="2" x1="9" x2="500" y1="149" y2="500"/>
<line stroke="brown" stroke-witdh="2" x1="211" x2="500" y1="320" y2="500"/>
<line stroke="black" stroke-witdh="2" x1="299" x2="500" y1="153" y2="500"/>
<line stroke="orange" stroke-witdh="2" x1="11" x2="500" y1="270" y2="500"/>
<line stroke="black" stroke-witdh="2" x1="277" x2="500" y1="310" y2="500"/>
<line stroke="green" stroke-witdh="2" x1="258" x2="500" y1="254" y2="500"/>
<line stroke="orange" stroke-witdh="2" x1="230" x2="500" y1="285" y2="500"/>
<line stroke="orange" stroke-witdh="2" x1="289" x2="500" y1="174" y2="500"/>
<line stroke="green" stroke-witdh="2" x1="310" x2="500" y1="254" y2="500"/>
<line stroke="black" stroke-witdh="2" x1="281" x2="500" y1="275" y2="500"/>
<line stroke="black" stroke-witdh="2" x1="36" x2="500" y1="283" y2="500"/>
<line stroke="brown" stroke-witdh="2" x1="23" x2="500" y1="394" y2="500"/>
<line stroke="black" stroke-witdh="2" x1="221" x2="500" y1="319" y2="500"/>
<line stroke="brown" stroke-witdh="2" x1="87" x2="500" y1="276" y2="500"/>
<line stroke="green" stroke-witdh="2" x1="49" x2="500" y1="223" y2="500"/>
<line stroke="black" stroke-witdh="2" x1="75" x2="500" y1="199" y2="500"/>
<line stroke="blue" stroke-witdh="2" x1="104" x2="500" y1="119" y2="500"/>
<line stroke="black" stroke-witdh="2" x1="111" x2="500" y1="275" y2="500"/>
<line stroke="blue" stroke-witdh="2" x1="4" x2="500" y1="319" y2="500"/>
<line stroke="brown" stroke-witdh="2" x1="312" x2="500" y1="133" y2="500"/>
<line stroke="green" stroke-witdh="2" x1="83" x2="500" y1="317" y2="500"/>
<line stroke="green" stroke-witdh="2" x1="326" x2="500" y1="290" y2="500"/>
<line stroke="orange" stroke-witdh="2" x1="219" x2="500" y1="17" y2="500"/>
<line stroke="green" stroke-witdh="2" x1="97" x2="500" y1="156" y2="500"/>
<line stroke="blue" stroke-witdh="2" x1="110" x2="500" y1="232" y2="500"/>
<line stroke="orange" stroke-witdh="2" x1="334" x2="500" y1="228" y2="500"/>
<line stroke="black" stroke-witdh="2" x1="63" x2="500" y1="330" y2="500"/>
<line stroke="orange" stroke-witdh="2" x1="368" x2="500" y1="136" y2="500"/>
<line stroke="green" stroke-witdh="2" x1="128" x2="500" y1="2" y2="500"/>
<line stroke="brown" stroke-witdh="2" x1="326" x2="500" y1="338" y2="500"/>
<line stroke="brown" stroke-witdh="2" x1="281" x2="500" y1="9" y2="500"/>
<line stroke="orange" stroke-witdh="2" x1="123" x2="500" y1="253" y2="500"/>
<line stroke="green" stroke-witdh="2" x1="52" x2="500" y1="4" y2="500"/>
<line stroke="blue" stroke-witdh="2" x1="372" x2="500" y1="258" y2="500"/>
<line stroke="green" stroke-witdh="2" x1="393" x2="500" y1="181" y2="500"/>
<line stroke="brown" stroke-witdh="2" x1="19" x2="500" y1="304" y2="500"/>
<line stroke="orange" stroke-witdh="2" x1="365" x2="500" y1="125" y2="500"/>
<line stroke="brown" stroke-witdh="2" x1="282" x2="500" y1="232" y2="500"/>
<line stroke="brown" stroke-witdh="2" x1="267" x2="500" y1="293" y2="500"/>
<line stroke="blue" stroke-witdh="2" x1="62" x2="500" y1="71" y2="500"/>
<line stroke="blue" stroke-witdh="2" x1="141" x2="500" y1="365" y2="500"/>
<line stroke="blue" stroke-witdh="2" x1="305" x2="500" y1="174" y2="500"/>
<line stroke="black" stroke-witdh="2" x1="342" x2="500" y1="295" y2="500"/>
<line stroke="green" stroke-witdh="2" x1="222" x2="500" y1="398" y2="500"/>
<line stroke="brown" stroke-witdh="2" x1="116" x2="500" y1="143" y2="500"/>
<line stroke="green" stroke-witdh="2" x1="314" x2="500" y1="191" y2="500"/>
<line stroke="orange" stroke-witdh="2" x1="189" x2="500" y1="203" y2="500"/>
<line stroke="green" stroke-witdh="2" x1="93" x2="500" y1="211" y2="500"/>
<line stroke="green" stroke-witdh="2" x1="235" x2="500" y1="300" y2="500"/>
<line stroke="black" stroke-witdh="2" x1="182" x2="500" y1="354" y2="500"/>
<line stroke="brown" stroke-witdh="2" x1="202" x2="500" y1="8" y2="500"/>
<line stroke="orange" stroke-witdh="2" x1="294" x2="500" y1="83" y2="500"/>
<line stroke="black" stroke-witdh="2" x1="362" x2="500" y1="323" y2="500"/>
<line stroke="black" stroke-witdh="2" x1="151" x2="500" y1="380" y2="500"/>
<line stroke="black" stroke-witdh="2" x1="309" x2="500" y1="347" y2="500"/>
<line stroke="brown" stroke-witdh="2" x1="98" x2="500" y1="310" y2="500"/>
<line stroke="orange" stroke-witdh="2" x1="40" x2="500" y1="18" y2="500"/>
<line stroke="blue" stroke-witdh="2" x1="314" x2="500" y1="67" y2="500"/>
<line stroke="brown" stroke-witdh="2" x1="19" x2="500" y1="90" y2="500"/>
<line stroke="green" stroke-witdh="2" x1="64" x2="500" y1="113" y2="500"/>
<line stroke="black" stroke-witdh="2" x1="237" x2="500" y1="79" y2="500"/>
<line stroke="blue" stroke-witdh="2" x1="241" x2="500" y1="330" y2="500"/>
<line stroke="black" stroke-witdh="2" x1="234" x2="500" y1="229" y2="500"/>
<line stroke="blue" stroke-witdh="2" x1="227" x2="500" y1="171" y2="500"/>
<line stroke="green" stroke-witdh="2" x1="269" x2="500" y1="67" y2="500"/>
<line stroke="green" stroke-witdh="2" x1="265" x2="500" y1="139" y2="500"/>
<line stroke="orange" stroke-witdh="2" x1="299" x2="500" y1="397" y2="500"/>
<line stroke="black" stroke-witdh="2" x1="40" x2="500" y1="332" y2="500"/>
<line stroke="blue" stroke-witdh="2" x1="359" x2="500" y1="37" y2="500"/>
</svg>